# xmcd
#
# Track frame offsets:
#	150
#	21413
#	35949
#	46553
#	63806
#	81512
#	98172
#	113621
#	130890
#	151627
#	168345
#
# Disc length: 2466 seconds
#
# Revision: 1
# Processed by: cddbd v1.5.1PL0 Copyright (c) Steve Scherf et al.
# Submitted via: audiograbber 1.83.01
#
DISCID=8209a00b
DTITLE=Dixie Werewolves - Sweet Southern Sunshine
DYEAR=1900
DGENRE=Blues
TTITLE0=Live For The Music
TTITLE1=Turn Me Loose
TTITLE2=Raise Up Yo' Hands
TTITLE3=She's My Baby
TTITLE4=Shock The Bones
TTITLE5=Driftin' Like The Wind
TTITLE6=Sweet Southern Sunshine
TTITLE7=Guitar Man
TTITLE8=Downtown Girl
TTITLE9=Rock U 2 the Limit
TTITLE10=Stay With Me Tonight
EXTD=
EXTT0=
EXTT1=
EXTT2=
EXTT3=
EXTT4=
EXTT5=
EXTT6=
EXTT7=
EXTT8=
EXTT9=
EXTT10=
PLAYORDER=
